<svg xmlns="http://www.w3.org/2000/svg" width="167.195" height="45.692" viewBox="0 0 167.195 45.692">
  <defs>
    <style>
      .cls-1 {
        fill: #49a010;
      }

      .cls-2 {
        fill: #3a7f0d;
      }

      .cls-3 {
        fill: #92f84f;
        opacity: 0.37;
      }

      .cls-4, .cls-5 {
        fill: #fff;
      }

      .cls-5 {
        opacity: 0.35;
      }
    </style>
  </defs>
  <g id="logo" transform="translate(-2110 -369)">
    <path id="Path_3" data-name="Path 3" class="cls-1" d="M34.288-264.017a12.817,12.817,0,0,1-6.569-1.619,10.831,10.831,0,0,1-4.287-4.637,15.613,15.613,0,0,1-1.509-7.065,15.658,15.658,0,0,1,1.49-7.047A10.706,10.706,0,0,1,27.7-289a12.917,12.917,0,0,1,6.587-1.619A12.816,12.816,0,0,1,40.857-289a10.739,10.739,0,0,1,4.269,4.618,15.658,15.658,0,0,1,1.49,7.047,15.613,15.613,0,0,1-1.509,7.065,10.831,10.831,0,0,1-4.287,4.637A12.741,12.741,0,0,1,34.288-264.017Zm0-3.79a6.788,6.788,0,0,0,5.575-2.466q2.006-2.465,2.006-7.065t-2.006-7.047a6.81,6.81,0,0,0-5.575-2.447,6.851,6.851,0,0,0-5.612,2.447q-2.006,2.447-2.006,7.047t2.006,7.065A6.829,6.829,0,0,0,34.288-267.807Zm28.556-11.15-2.686.258q-4.563.478-4.563,4.637v9.715H51v-17.995h4.379v3.165q1.4-3.238,5.777-3.533l1.4-.11Zm19.393-3.385V-266q0,4.232-2.337,6.4T73-257.43a16.727,16.727,0,0,1-4.526-.607,12.787,12.787,0,0,1-3.79-1.711l1.288-3.238a13.2,13.2,0,0,0,6.918,2.024q4.784,0,4.784-4.71v-2.355a5.619,5.619,0,0,1-2.355,2.337,7.364,7.364,0,0,1-3.533.828,7.8,7.8,0,0,1-4.177-1.122,7.713,7.713,0,0,1-2.852-3.146,10.164,10.164,0,0,1-1.03-4.673,10.434,10.434,0,0,1,1.012-4.692,7.524,7.524,0,0,1,2.852-3.165,7.893,7.893,0,0,1,4.2-1.122,7.364,7.364,0,0,1,3.533.828,5.619,5.619,0,0,1,2.355,2.337v-2.723ZM73-268.433a4.292,4.292,0,0,0,3.441-1.435,5.846,5.846,0,0,0,1.233-3.937,5.906,5.906,0,0,0-1.233-3.974A4.292,4.292,0,0,0,73-279.215a4.3,4.3,0,0,0-3.422,1.435,5.848,5.848,0,0,0-1.251,3.974,5.8,5.8,0,0,0,1.251,3.919A4.279,4.279,0,0,0,73-268.433Zm21.711-14.352q3.79,0,5.63,1.84t1.84,5.667v10.929H97.8v-2.76a4.8,4.8,0,0,1-1.969,2.245,5.906,5.906,0,0,1-3.109.81,7.22,7.22,0,0,1-3.275-.736,5.826,5.826,0,0,1-2.318-2.024,5.114,5.114,0,0,1-.846-2.87,4.547,4.547,0,0,1,1.012-3.128,6.081,6.081,0,0,1,3.293-1.656,29.993,29.993,0,0,1,6.293-.515h.92v-.846a3.7,3.7,0,0,0-.791-2.65,3.574,3.574,0,0,0-2.631-.81,9.9,9.9,0,0,0-3,.5,15.168,15.168,0,0,0-3.073,1.38l-1.288-3.165a14.291,14.291,0,0,1,3.643-1.582A14.4,14.4,0,0,1,94.712-282.784Zm-1.067,15.419a3.93,3.93,0,0,0,3-1.233,4.459,4.459,0,0,0,1.159-3.183v-.773h-.662a25.387,25.387,0,0,0-3.827.221,3.715,3.715,0,0,0-1.95.773,1.968,1.968,0,0,0-.589,1.509,2.523,2.523,0,0,0,.81,1.932A2.9,2.9,0,0,0,93.645-267.366Zm23.662-15.419a6.014,6.014,0,0,1,4.821,1.84q1.582,1.84,1.582,5.557v11.04h-4.6V-275.13a4.771,4.771,0,0,0-.791-3.054,3.041,3.041,0,0,0-2.484-.957,4.2,4.2,0,0,0-3.183,1.251,4.645,4.645,0,0,0-1.2,3.349v10.193h-4.6v-17.995h4.489v2.686a6.223,6.223,0,0,1,2.466-2.318A7.42,7.42,0,0,1,117.306-282.784Zm11.076,18.436v-17.995h4.6v17.995Zm-.258-26.348H133.2v4.526h-5.078Zm17.811,26.642a10.06,10.06,0,0,1-4.913-1.141,7.717,7.717,0,0,1-3.183-3.238,10.361,10.361,0,0,1-1.1-4.894,10.277,10.277,0,0,1,1.159-4.949,8.126,8.126,0,0,1,3.293-3.33,10.041,10.041,0,0,1,4.931-1.178,11.735,11.735,0,0,1,3.735.607,7.868,7.868,0,0,1,2.925,1.638l-1.325,3.238a8.747,8.747,0,0,0-2.41-1.4,7.11,7.11,0,0,0-2.521-.478,4.714,4.714,0,0,0-3.717,1.49,6.251,6.251,0,0,0-1.325,4.287,6.191,6.191,0,0,0,1.325,4.25,4.714,4.714,0,0,0,3.717,1.49,7.109,7.109,0,0,0,2.521-.478,8.747,8.747,0,0,0,2.41-1.4l1.325,3.2a8.3,8.3,0,0,1-3.018,1.674A12.134,12.134,0,0,1,145.936-264.054Z" transform="translate(2124.415 671.872)"/>
    <g id="leaf" transform="translate(2110 369)">
      <path id="Path_1" data-name="Path 1" class="cls-2" d="M71.827,0S67.791,9.875,85.091,16.509c9.4,3.6,16.621,12.839,8,27.106-.714-6.377-3.775-20.437-16.939-23.646,0,0,12.252,4.581,13.334,25.319-6.3.884-21.061,1.478-25.444-11.335C58.253,17.023,71.827,0,71.827,0Z" transform="translate(-62.605 0)"/>
      <path id="Path_2" data-name="Path 2" class="cls-1" d="M87.037,45.2A39.087,39.087,0,0,1,62.605,12.455,49.867,49.867,0,0,1,69.384,0S65.348,9.875,82.648,16.509c9.4,3.6,16.621,12.839,8,27.106-.714-6.377-3.775-20.437-16.939-23.646C73.709,19.968,85.925,24.538,87.037,45.2Z" transform="translate(-60.162 0)"/>
      <ellipse id="Ellipse_1" data-name="Ellipse 1" class="cls-2" cx="1.249" cy="1.249" rx="1.249" ry="1.249" transform="translate(30.57 14.339)"/>
      <ellipse id="Ellipse_11" data-name="Ellipse 11" class="cls-3" cx="1.249" cy="1.249" rx="1.249" ry="1.249" transform="translate(37.73 22.587)"/>
      <ellipse id="Ellipse_12" data-name="Ellipse 12" class="cls-4" cx="1.793" cy="1.793" rx="1.793" ry="1.793" transform="translate(39.298 29.358)"/>
      <g id="Group_1" data-name="Group 1" transform="translate(13.429 2.723)">
        <ellipse id="Ellipse_2" data-name="Ellipse 2" class="cls-1" cx="0.892" cy="0.892" rx="0.892" ry="0.892" transform="translate(13.209 9.817)"/>
        <ellipse id="Ellipse_7" data-name="Ellipse 7" class="cls-4" cx="0.892" cy="0.892" rx="0.892" ry="0.892" transform="translate(27.348 7.279)"/>
        <ellipse id="Ellipse_3" data-name="Ellipse 3" class="cls-1" cx="2.231" cy="2.231" rx="2.231" ry="2.231" transform="translate(12.673)"/>
        <ellipse id="Ellipse_4" data-name="Ellipse 4" class="cls-1" cx="0.714" cy="0.714" rx="0.714" ry="0.714" transform="translate(7.319 6.604)"/>
        <ellipse id="Ellipse_8" data-name="Ellipse 8" class="cls-1" cx="0.714" cy="0.714" rx="0.714" ry="0.714" transform="translate(38.317 23.1)"/>
        <ellipse id="Ellipse_9" data-name="Ellipse 9" class="cls-5" cx="0.714" cy="0.714" rx="0.714" ry="0.714" transform="translate(26.081 12.767)"/>
        <ellipse id="Ellipse_10" data-name="Ellipse 10" class="cls-4" cx="0.714" cy="0.714" rx="0.714" ry="0.714" transform="translate(26.806 16.937)"/>
        <ellipse id="Ellipse_5" data-name="Ellipse 5" class="cls-1" cx="2.053" cy="2.053" rx="2.053" ry="2.053" transform="translate(0 1.249)"/>
      </g>
    </g>
  </g>
</svg>
